<svg width="16.000000" height="21.000000" viewBox="0 0 16 21" fill="none" xmlns="http://www.w3.org/2000/svg" xmlns:xlink="http://www.w3.org/1999/xlink"><defs/><path id="Vector" d="M0.5 7.14C0.5 3.2 3.85 0 8 0C12.14 0 15.5 3.2 15.5 7.14L15.5 7.57C15.5 9.15 14.98 10.69 14.01 11.98L8.01 19.99C8 20 7.99 20 7.98 19.99L1.98 11.98C1.01 10.69 0.5 9.15 0.5 7.57L0.5 7.14ZM6.53 4.28C7.45 3.86 8.54 3.86 9.46 4.28C10.39 4.71 11.06 5.51 11.29 6.47C11.52 7.42 11.28 8.43 10.64 9.19C10 9.96 9.02 10.41 8 10.41C6.97 10.41 6 9.96 5.35 9.19C4.71 8.43 4.47 7.42 4.7 6.47C4.93 5.51 5.6 4.71 6.53 4.28Z" stroke="#2D383F" stroke-opacity="1.000000" stroke-width="1.000000" stroke-linejoin="round"/></svg>
