<svg width="24.000000" height="24.000000" viewBox="0 0 24 24" fill="none" xmlns="http://www.w3.org/2000/svg" xmlns:xlink="http://www.w3.org/1999/xlink">
	<desc>
			Created with Pixso.
	</desc>
	<defs>
		<clipPath id="clip18_429">
			<rect id="icon/path" width="24.000000" height="24.000000" fill="white" fill-opacity="0"/>
		</clipPath>
	</defs>
	<g clip-path="url(#clip18_429)">
		<path id="icon/path" d="M19.79 9.56L13.94 9.56C12.11 9.56 10.63 11.05 10.63 12.9C10.63 14.74 12.11 16.23 13.94 16.23L16.48 16.23C18.3 16.23 19.79 17.73 19.79 19.57C19.79 21.41 18.3 22.9 16.48 22.9L4.2 22.9M4.2 14.23C2.48 14.23 1.09 15.64 1.09 17.37L1.09 17.49C1.09 18.18 1.3 18.85 1.7 19.41L4.2 22.86C4.2 22.86 4.21 22.86 4.21 22.86L6.7 19.41C7.1 18.85 7.32 18.18 7.32 17.49L7.32 17.37C7.32 15.64 5.92 14.23 4.2 14.23ZM4.82 16.09C5.2 16.27 5.48 16.61 5.57 17.02C5.67 17.44 5.56 17.88 5.3 18.2C5.03 18.53 4.64 18.72 4.22 18.72L4.19 18.72C3.77 18.72 3.37 18.53 3.11 18.2C2.84 17.88 2.74 17.44 2.83 17.02C2.93 16.61 3.2 16.27 3.58 16.09L3.6 16.08C3.98 15.9 4.42 15.9 4.81 16.08L4.82 16.09ZM19.79 1.09C18.07 1.09 16.67 2.51 16.67 4.25C16.67 4.93 16.89 5.6 17.29 6.15L19.78 9.52C19.78 9.52 19.79 9.52 19.79 9.52L22.28 6.15C22.69 5.6 22.9 4.93 22.9 4.25C22.9 2.51 21.51 1.09 19.79 1.09ZM20.42 2.91C20.79 3.08 21.06 3.41 21.15 3.81C21.25 4.21 21.15 4.64 20.88 4.96L20.87 4.98C20.61 5.29 20.23 5.48 19.82 5.48L19.75 5.48C19.35 5.48 18.96 5.29 18.7 4.98L18.69 4.96C18.42 4.64 18.32 4.21 18.42 3.81C18.51 3.41 18.78 3.08 19.15 2.91L19.19 2.89C19.57 2.71 20 2.71 20.38 2.89L20.42 2.91Z" stroke="#0266C1" stroke-opacity="1.000000" stroke-width="1.000000" stroke-linecap="round"/>
	</g>
</svg>
