<svg width="42.000000" height="42.000000" viewBox="0 0 42 42" fill="none" xmlns="http://www.w3.org/2000/svg" xmlns:xlink="http://www.w3.org/1999/xlink"><defs><clipPath id="clip26_521"><rect id="icon/path" width="24.000000" height="24.000000" transform="translate(9.000000 9.000000)" fill="white" fill-opacity="0"/></clipPath></defs><g clip-path="url(#clip26_521)"><path id="icon/path" d="M28.79 18.56L22.94 18.56C21.11 18.56 19.63 20.05 19.63 21.9C19.63 23.74 21.11 25.23 22.94 25.23L25.48 25.23C27.3 25.23 28.79 26.73 28.79 28.57C28.79 30.41 27.3 31.9 25.48 31.9L13.2 31.9M13.2 23.23C11.48 23.23 10.09 24.64 10.09 26.37L10.09 26.49C10.09 27.18 10.3 27.85 10.7 28.41L13.2 31.86C13.2 31.86 13.21 31.86 13.21 31.86L15.7 28.41C16.1 27.85 16.32 27.18 16.32 26.49L16.32 26.37C16.32 24.64 14.92 23.23 13.2 23.23ZM13.82 25.09C14.2 25.27 14.48 25.61 14.57 26.02C14.67 26.44 14.56 26.88 14.3 27.21C14.03 27.53 13.64 27.72 13.22 27.72L13.19 27.72C12.77 27.72 12.37 27.53 12.11 27.21C11.84 26.88 11.74 26.44 11.83 26.02C11.93 25.61 12.2 25.27 12.58 25.09L12.6 25.08C12.98 24.9 13.42 24.9 13.81 25.08L13.82 25.09ZM28.79 10.09C27.07 10.09 25.67 11.51 25.67 13.25C25.67 13.93 25.89 14.6 26.29 15.15L28.78 18.52C28.78 18.52 28.79 18.52 28.79 18.52L31.28 15.15C31.69 14.6 31.9 13.93 31.9 13.25C31.9 11.51 30.51 10.09 28.79 10.09ZM29.42 11.91C29.79 12.08 30.06 12.41 30.15 12.81C30.25 13.21 30.15 13.64 29.88 13.96L29.87 13.98C29.61 14.29 29.23 14.48 28.82 14.48L28.75 14.48C28.35 14.48 27.96 14.29 27.7 13.98L27.69 13.96C27.42 13.64 27.32 13.21 27.42 12.81C27.51 12.41 27.78 12.08 28.15 11.91L28.19 11.89C28.57 11.71 29 11.71 29.38 11.89L29.42 11.91Z" stroke="#0266C1" stroke-opacity="1.000000" stroke-width="1.000000" stroke-linecap="round"/></g><rect id="icon" rx="-0.500000" width="41.000000" height="41.000000" transform="translate(0.500000 0.500000)" stroke="#0266C1" stroke-opacity="1.000000" stroke-width="1.000000"/></svg>
