<svg width="42.000000" height="42.000000" viewBox="0 0 42 42" fill="none" xmlns="http://www.w3.org/2000/svg" xmlns:xlink="http://www.w3.org/1999/xlink"><defs><clipPath id="clip26_514"><rect id="icon/boots" width="24.000000" height="24.000000" transform="translate(9.000000 9.000000)" fill="white" fill-opacity="0"/></clipPath></defs><g clip-path="url(#clip26_514)"><path id="Vector" d="M31.12 17.86C31.71 19.65 32.27 22.25 31.59 24.53C31.78 24.57 31.91 24.75 31.9 24.95L31.9 29.45C31.9 29.68 31.73 29.86 31.52 29.86L30.56 29.86C30.35 29.86 30.17 29.68 30.17 29.45L30.17 28.75L29.6 28.75L29.6 29.45C29.6 29.68 29.42 29.86 29.21 29.86L27.96 29.86C27.75 29.86 27.58 29.68 27.58 29.45L27.58 28.75L27.02 28.75L27.02 29.45C27.02 29.68 26.85 29.87 26.63 29.87L26.16 29.87C26.07 29.87 25.99 29.84 25.92 29.78C25.85 29.72 24.13 28.35 21.42 30.02L21.36 30.05C20.67 30.29 19.97 30.47 19.26 30.59C19.24 30.59 19.21 30.59 19.19 30.59C18.98 30.59 18.81 30.4 18.81 30.17L18.81 29.8L18.24 29.8L18.24 30.35C18.24 30.56 18.09 30.75 17.88 30.76C17.54 30.81 17.21 30.81 16.88 30.81C16.67 30.81 16.5 30.63 16.5 30.4L16.5 29.8L15.93 29.8L15.93 30.33C15.93 30.45 15.88 30.56 15.8 30.64C15.72 30.72 15.62 30.76 15.51 30.75C15.18 30.72 14.84 30.67 14.51 30.61C14.32 30.58 14.18 30.4 14.18 30.2L14.18 29.78L13.61 29.78L13.61 29.87C13.61 29.92 13.61 29.96 13.6 30C13.54 30.22 13.33 30.35 13.12 30.29C12.12 29.99 11.16 29.55 10.27 28.97C10.16 28.89 10.09 28.76 10.09 28.61L10.09 25.63C10.09 25.62 10.09 25.6 10.09 25.58C10.08 24.41 10.55 22.06 14.17 20.77L14.37 20.7C15.41 20.36 16.44 19.95 17.43 19.47C18 19.2 18.53 18.82 18.98 18.35L18.98 18.32L19.02 18.29C19.33 17.95 19.58 17.55 19.77 17.12C19.77 17.09 19.77 17.07 19.77 17.05C19.78 17.04 19.78 17.03 19.79 17.01C20.29 15.82 20.46 14.12 20.33 11.62C20.32 11.61 20.32 11.6 20.32 11.59C20.32 11.36 20.5 11.18 20.71 11.18L30.23 11.18C30.66 11.18 31 11.55 31 12.01L31 15.48C31 15.82 30.81 16.13 30.52 16.25C30.68 16.6 30.86 17.08 31.06 17.66C31.1 17.72 31.12 17.79 31.12 17.86ZM30.21 12.02L22.4 12.02L22.4 15.47L30.21 15.47L30.21 12.02ZM17.54 20.36L17.53 20.33C16.68 20.75 15.81 21.11 14.92 21.43C15.49 22.28 16.37 24.22 15.64 27.36C19.6 27.64 24.32 26.58 27.45 25.7C26.38 24.84 25.74 23.49 25.73 22.05C25.72 19.51 27.61 17.45 29.96 17.43L30.12 17.43C29.94 16.93 29.76 16.54 29.66 16.32L22.41 16.32C21.98 16.32 21.63 15.95 21.63 15.49L21.63 12.04L21.12 12.04C21.21 14.22 21.03 15.83 20.6 17.04C21.23 17.39 21.84 17.77 22.43 18.2C22.53 18.14 22.65 18.11 22.77 18.11C23.18 18.12 23.51 18.48 23.51 18.93C23.5 19.37 23.17 19.73 22.75 19.72C22.34 19.72 22.01 19.36 22.01 18.91C21.46 18.5 20.88 18.12 20.28 17.79C20.14 18.06 19.97 18.33 19.79 18.57C20.19 18.97 20.56 19.41 20.9 19.87L20.99 19.87C21.08 19.87 21.16 19.88 21.24 19.91C21.63 20.06 21.83 20.51 21.69 20.93C21.56 21.34 21.14 21.56 20.75 21.41C20.37 21.27 20.16 20.82 20.3 20.4C19.98 19.97 19.63 19.56 19.25 19.18C18.95 19.46 18.63 19.71 18.28 19.92C18.59 20.22 18.87 20.55 19.11 20.91C19.5 20.95 19.79 21.29 19.79 21.71C19.78 22.15 19.45 22.5 19.04 22.5C18.63 22.5 18.3 22.14 18.31 21.7C18.3 21.55 18.34 21.41 18.41 21.28C18.15 20.95 17.85 20.64 17.54 20.36ZM22.77 13.74C22.77 13.07 23.27 12.52 23.89 12.52C24.52 12.52 25.02 13.07 25.02 13.74C25.02 14.41 24.52 14.95 23.89 14.95C23.27 14.95 22.77 14.41 22.77 13.74ZM23.54 13.74C23.54 13.95 23.7 14.12 23.89 14.12C24.09 14.12 24.25 13.95 24.25 13.74C24.25 13.53 24.09 13.36 23.89 13.36C23.7 13.36 23.54 13.53 23.54 13.74ZM28.5 25.37C29.62 25.05 30.43 24.75 30.76 24.63C31.5 22.56 30.99 20.04 30.42 18.27L30.42 18.26C30.27 18.24 30.12 18.23 29.96 18.24C28.65 18.26 27.45 19.08 26.88 20.35C26.04 22.22 26.77 24.46 28.5 25.37ZM14.86 27.25C15.66 23.97 14.56 22.19 14.15 21.66C11.13 22.83 10.82 24.75 10.85 25.64L10.85 25.67C10.86 25.76 10.87 25.86 10.88 25.96C12.1 26.69 13.46 27.13 14.86 27.25ZM30.95 28.33L30.95 29.03L31.13 29.03L31.12 25.37C30.29 25.67 23.23 28.21 17.05 28.21C14.73 28.21 12.54 27.85 10.85 26.89L10.85 28.38C11.48 28.77 12.14 29.09 12.83 29.34C12.85 29.13 13.02 28.97 13.22 28.97L14.56 28.97C14.77 28.97 14.95 29.16 14.95 29.39L14.95 29.85L15.15 29.88L15.15 29.39C15.15 29.16 15.32 28.97 15.53 28.97L16.88 28.97C17.09 28.97 17.26 29.16 17.26 29.39L17.26 29.97L17.46 29.97L17.46 29.4C17.46 29.17 17.64 28.98 17.85 28.98L19.19 28.98C19.4 28.98 19.57 29.17 19.57 29.4L19.57 29.69C20.08 29.58 20.57 29.44 21.06 29.27C23.79 27.63 25.71 28.66 26.24 29.01L26.24 28.33C26.24 28.1 26.41 27.91 26.63 27.91L27.96 27.91C28.18 27.91 28.35 28.1 28.35 28.33L28.35 29.03L28.83 29.03L28.83 28.33C28.83 28.1 29 27.91 29.21 27.91L30.56 27.91C30.77 27.91 30.95 28.1 30.95 28.33Z" fill="#0266C1" fill-opacity="1.000000" fill-rule="evenodd"/></g><rect id="icon" rx="-0.500000" width="41.000000" height="41.000000" transform="translate(0.500000 0.500000)" stroke="#0266C1" stroke-opacity="1.000000" stroke-width="1.000000"/></svg>
