<svg width="42.000000" height="42.000000" viewBox="0 0 42 42" fill="none" xmlns="http://www.w3.org/2000/svg" xmlns:xlink="http://www.w3.org/1999/xlink"><defs><clipPath id="clip26_499"><rect id="icon/level" width="24.000000" height="24.000000" transform="translate(9.000000 9.000000)" fill="white" fill-opacity="0"/></clipPath></defs><g clip-path="url(#clip26_499)"><path id="icon/shield" d="M12.76 12.07C12.37 12.07 11.98 12.06 11.59 12.03C11.09 14.31 11.04 16.68 11.45 19.01C12.19 23.18 14.37 26.95 17.63 29.67C18.67 30.55 19.8 31.29 21 31.9C22.19 31.29 23.32 30.55 24.36 29.67C27.62 26.95 29.8 23.18 30.54 19.01C30.95 16.68 30.9 14.31 30.4 12.03C30.01 12.06 29.62 12.07 29.23 12.07C26.35 12.07 23.53 11.38 21 10.09C18.46 11.38 15.64 12.07 12.76 12.07ZM18.54 20.9L21 23.35L25.29 19.06" stroke="#0266C1" stroke-opacity="1.000000" stroke-width="1.000000"/></g><rect id="icon" rx="-0.500000" width="41.000000" height="41.000000" transform="translate(0.500000 0.500000)" stroke="#0266C1" stroke-opacity="1.000000" stroke-width="1.000000"/></svg>
