<svg width="24.000000" height="24.000000" viewBox="0 0 24 24" fill="none" xmlns="http://www.w3.org/2000/svg" xmlns:xlink="http://www.w3.org/1999/xlink"><defs><clipPath id="clip18_422"><rect id="icon/boots" width="24.000000" height="24.000000" fill="white" fill-opacity="0"/></clipPath></defs><g clip-path="url(#clip18_422)"><path id="Vector" d="M22.12 8.86C22.71 10.65 23.27 13.25 22.59 15.53C22.78 15.57 22.91 15.75 22.9 15.95L22.9 20.45C22.9 20.68 22.73 20.86 22.52 20.86L21.56 20.86C21.35 20.86 21.17 20.68 21.17 20.45L21.17 19.75L20.6 19.75L20.6 20.45C20.6 20.68 20.42 20.86 20.21 20.86L18.96 20.86C18.75 20.86 18.58 20.68 18.58 20.45L18.58 19.75L18.02 19.75L18.02 20.45C18.02 20.68 17.85 20.87 17.63 20.87L17.16 20.87C17.07 20.87 16.99 20.84 16.92 20.78C16.85 20.72 15.13 19.35 12.42 21.02L12.36 21.05C11.67 21.29 10.97 21.47 10.26 21.59C10.24 21.59 10.21 21.59 10.19 21.59C9.98 21.59 9.81 21.4 9.81 21.17L9.81 20.8L9.24 20.8L9.24 21.35C9.24 21.56 9.09 21.75 8.88 21.76C8.54 21.81 8.21 21.81 7.88 21.81C7.67 21.81 7.5 21.63 7.5 21.4L7.5 20.8L6.93 20.8L6.93 21.33C6.93 21.45 6.88 21.56 6.8 21.64C6.72 21.72 6.62 21.76 6.51 21.75C6.18 21.72 5.84 21.67 5.51 21.61C5.32 21.58 5.18 21.4 5.18 21.2L5.18 20.78L4.61 20.78L4.61 20.87C4.61 20.92 4.61 20.96 4.6 21C4.54 21.22 4.33 21.35 4.12 21.29C3.12 20.99 2.16 20.55 1.27 19.97C1.16 19.89 1.09 19.76 1.09 19.61L1.09 16.63C1.09 16.62 1.09 16.6 1.09 16.58C1.08 15.41 1.55 13.06 5.17 11.77L5.37 11.7C6.41 11.36 7.44 10.95 8.43 10.47C9 10.2 9.53 9.82 9.98 9.35L9.98 9.32L10.02 9.29C10.33 8.95 10.58 8.55 10.77 8.12C10.77 8.09 10.77 8.07 10.77 8.05C10.78 8.04 10.78 8.03 10.79 8.01C11.29 6.82 11.46 5.12 11.33 2.62C11.32 2.61 11.32 2.6 11.32 2.59C11.32 2.36 11.5 2.18 11.71 2.18L21.23 2.18C21.66 2.18 22 2.55 22 3.01L22 6.48C22 6.82 21.81 7.13 21.52 7.25C21.68 7.6 21.86 8.08 22.06 8.66C22.1 8.72 22.12 8.79 22.12 8.86ZM21.21 3.02L13.4 3.02L13.4 6.47L21.21 6.47L21.21 3.02ZM8.54 11.36L8.53 11.33C7.68 11.75 6.81 12.11 5.92 12.43C6.49 13.28 7.37 15.22 6.64 18.36C10.6 18.64 15.32 17.58 18.45 16.7C17.38 15.84 16.74 14.49 16.73 13.05C16.72 10.51 18.61 8.45 20.96 8.43L21.12 8.43C20.94 7.93 20.76 7.54 20.66 7.32L13.41 7.32C12.98 7.32 12.63 6.95 12.63 6.49L12.63 3.04L12.12 3.04C12.21 5.22 12.03 6.83 11.6 8.04C12.23 8.39 12.84 8.77 13.43 9.2C13.53 9.14 13.65 9.11 13.77 9.11C14.18 9.12 14.51 9.48 14.51 9.93C14.5 10.37 14.17 10.73 13.75 10.72C13.34 10.72 13.01 10.36 13.01 9.91C12.46 9.5 11.88 9.12 11.28 8.79C11.14 9.06 10.97 9.33 10.79 9.57C11.19 9.97 11.56 10.41 11.9 10.87L11.99 10.87C12.08 10.87 12.16 10.88 12.24 10.91C12.63 11.06 12.83 11.51 12.69 11.93C12.56 12.34 12.14 12.56 11.75 12.41C11.37 12.27 11.16 11.82 11.3 11.4C10.98 10.97 10.63 10.56 10.25 10.18C9.95 10.46 9.63 10.71 9.28 10.92C9.59 11.22 9.87 11.55 10.11 11.91C10.5 11.95 10.79 12.29 10.79 12.71C10.78 13.15 10.45 13.5 10.04 13.5C9.63 13.5 9.3 13.14 9.31 12.7C9.3 12.55 9.34 12.41 9.41 12.28C9.15 11.95 8.85 11.64 8.54 11.36ZM13.77 4.74C13.77 4.07 14.27 3.52 14.89 3.52C15.52 3.52 16.02 4.07 16.02 4.74C16.02 5.41 15.52 5.95 14.89 5.95C14.27 5.95 13.77 5.41 13.77 4.74ZM14.54 4.74C14.54 4.95 14.7 5.12 14.89 5.12C15.09 5.12 15.25 4.95 15.25 4.74C15.25 4.53 15.09 4.36 14.89 4.36C14.7 4.36 14.54 4.53 14.54 4.74ZM19.5 16.37C20.62 16.05 21.43 15.75 21.76 15.63C22.5 13.56 21.99 11.04 21.42 9.27L21.42 9.26C21.27 9.24 21.12 9.23 20.96 9.24C19.65 9.26 18.45 10.08 17.88 11.35C17.04 13.22 17.77 15.46 19.5 16.37ZM5.86 18.25C6.66 14.97 5.56 13.19 5.15 12.66C2.13 13.83 1.82 15.75 1.85 16.64L1.85 16.67C1.86 16.76 1.87 16.86 1.88 16.95C3.1 17.69 4.46 18.13 5.86 18.25ZM21.95 19.33L21.95 20.03L22.13 20.03L22.12 16.37C21.29 16.67 14.23 19.21 8.05 19.21C5.73 19.21 3.54 18.85 1.85 17.89L1.85 19.38C2.48 19.77 3.14 20.09 3.83 20.34C3.85 20.13 4.02 19.97 4.22 19.97L5.56 19.97C5.77 19.97 5.95 20.16 5.95 20.39L5.95 20.85L6.15 20.88L6.15 20.39C6.15 20.16 6.32 19.97 6.53 19.97L7.88 19.97C8.09 19.97 8.26 20.16 8.26 20.39L8.26 20.97L8.46 20.97L8.46 20.4C8.46 20.17 8.64 19.98 8.85 19.98L10.19 19.98C10.4 19.98 10.57 20.17 10.57 20.4L10.57 20.69C11.08 20.58 11.57 20.44 12.06 20.27C14.79 18.63 16.71 19.66 17.24 20.01L17.24 19.33C17.24 19.1 17.41 18.91 17.63 18.91L18.96 18.91C19.18 18.91 19.35 19.1 19.35 19.33L19.35 20.03L19.83 20.03L19.83 19.33C19.83 19.1 20 18.91 20.21 18.91L21.56 18.91C21.77 18.91 21.95 19.1 21.95 19.33Z" fill="#0266C1" fill-opacity="1.000000" fill-rule="evenodd"/></g></svg>
