<svg width="42.000000" height="42.000000" viewBox="0 0 42 42" fill="none" xmlns="http://www.w3.org/2000/svg" xmlns:xlink="http://www.w3.org/1999/xlink"><defs><clipPath id="clip26_528"><rect id="icon/leaf" width="24.000000" height="24.000000" transform="translate(9.000000 9.000000)" fill="white" fill-opacity="0"/></clipPath></defs><g clip-path="url(#clip26_528)"><path id="icon/leaf" d="M20.66 26.72C20.81 27.35 20.9 27.99 20.92 28.63C17.63 28.61 14.52 27.15 12.46 24.67C11 22.9 10.18 20.75 10.09 18.53C11.68 18.54 13.28 18.89 14.75 19.57C17.74 20.96 19.92 23.59 20.66 26.72C20.81 27.35 20.89 27.99 20.92 28.63C20.97 28.63 21.01 28.63 21.06 28.63C21.98 28.63 22.89 28.52 23.77 28.3C23.77 28.29 23.78 28.29 23.78 28.28C22.91 28.51 21.99 28.62 21.07 28.63C21.09 27.99 21.18 27.35 21.33 26.72C22.07 23.59 24.25 20.96 27.24 19.57C28.71 18.89 30.31 18.54 31.9 18.53C31.81 20.75 30.99 22.9 29.53 24.67C27.47 27.15 24.36 28.61 21.07 28.63M20.66 26.72C20.05 24.15 18.48 21.92 16.28 20.44C16.31 20.21 16.36 19.99 16.41 19.77C17.04 17.13 18.69 14.84 21 13.36C23.3 14.84 24.96 17.13 25.58 19.77C25.63 19.99 25.68 20.21 25.71 20.44C23.51 21.92 21.94 24.15 21.33 26.72" stroke="#0266C1" stroke-opacity="1.000000" stroke-width="1.000000" stroke-linejoin="round"/></g><rect id="icon" rx="-0.500000" width="41.000000" height="41.000000" transform="translate(0.500000 0.500000)" stroke="#0266C1" stroke-opacity="1.000000" stroke-width="1.000000"/></svg>
