<svg width="24.000000" height="24.000000" viewBox="0 0 24 24" fill="none" xmlns="http://www.w3.org/2000/svg" xmlns:xlink="http://www.w3.org/1999/xlink">
	<desc>
			Created with Pixso.
	</desc>
	<defs>
		<clipPath id="clip18_407">
			<rect id="icon/level" width="24.000000" height="24.000000" fill="white" fill-opacity="0"/>
		</clipPath>
	</defs>
	<g clip-path="url(#clip18_407)">
		<path id="icon/shield" d="M3.76 3.07C3.37 3.07 2.98 3.06 2.59 3.03C2.09 5.31 2.04 7.68 2.45 10.01C3.19 14.18 5.37 17.95 8.63 20.67C9.67 21.55 10.8 22.29 12 22.9C13.19 22.29 14.32 21.55 15.36 20.67C18.62 17.95 20.8 14.18 21.54 10.01C21.95 7.68 21.9 5.31 21.4 3.03C21.01 3.06 20.62 3.07 20.23 3.07C17.35 3.07 14.53 2.38 12 1.09C9.46 2.38 6.64 3.07 3.76 3.07ZM9.54 11.9L12 14.35L16.29 10.06" stroke="#0266C1" stroke-opacity="1.000000" stroke-width="1.000000"/>
	</g>
</svg>
