<svg width="24.000000" height="24.000000" viewBox="0 0 24 24" fill="none" xmlns="http://www.w3.org/2000/svg" xmlns:xlink="http://www.w3.org/1999/xlink"><defs><clipPath id="clip18_436"><rect id="icon/leaf" width="24.000000" height="24.000000" fill="white" fill-opacity="0"/></clipPath></defs><g clip-path="url(#clip18_436)"><path id="icon/leaf" d="M11.66 17.72C11.81 18.35 11.9 18.99 11.92 19.63C8.63 19.61 5.52 18.15 3.46 15.67C2 13.9 1.18 11.75 1.09 9.53C2.68 9.54 4.28 9.89 5.75 10.57C8.74 11.96 10.92 14.59 11.66 17.72C11.81 18.35 11.89 18.99 11.92 19.63C11.97 19.63 12.01 19.63 12.06 19.63C12.98 19.63 13.89 19.52 14.77 19.3C14.77 19.29 14.78 19.29 14.78 19.28C13.91 19.51 12.99 19.62 12.07 19.63C12.09 18.99 12.18 18.35 12.33 17.72C13.07 14.59 15.25 11.96 18.24 10.57C19.71 9.89 21.31 9.54 22.9 9.53C22.81 11.75 21.99 13.9 20.53 15.67C18.47 18.15 15.36 19.61 12.07 19.63M11.66 17.72C11.05 15.15 9.48 12.92 7.28 11.44C7.31 11.21 7.36 10.99 7.41 10.77C8.04 8.13 9.69 5.84 12 4.36C14.3 5.84 15.96 8.13 16.58 10.77C16.63 10.99 16.68 11.21 16.71 11.44C14.51 12.92 12.94 15.15 12.33 17.72" stroke="#0266C1" stroke-opacity="1.000000" stroke-width="1.000000" stroke-linejoin="round"/></g></svg>
