<svg width="15.000000" height="15.000000" viewBox="0 0 15 15" fill="none" xmlns="http://www.w3.org/2000/svg" xmlns:xlink="http://www.w3.org/1999/xlink"><defs/><path id="icon/Reddit" d="M8.28 0C7.8 0 7.35 0.24 7.07 0.59C6.78 0.94 6.62 1.37 6.51 1.82C6.32 2.55 6.27 3.36 6.25 4.08C4.91 4.17 3.7 4.58 2.69 5.19C2.29 4.85 1.79 4.65 1.32 4.66C0.78 4.66 0.27 4.9 -0.11 5.38C-0.83 6.3 -0.75 7.8 0.09 8.69C0.04 8.96 0 9.24 0 9.53C0 12.55 3.06 15 6.83 15C10.6 15 13.66 12.55 13.66 9.53C13.66 9.24 13.62 8.96 13.57 8.69C14.41 7.8 14.49 6.3 13.77 5.38C13.39 4.9 12.88 4.66 12.34 4.66C11.87 4.65 11.38 4.85 10.97 5.19C9.96 4.58 8.76 4.18 7.43 4.08C7.45 3.41 7.49 2.72 7.63 2.19C7.71 1.87 7.81 1.63 7.91 1.5C8.02 1.36 8.1 1.31 8.28 1.31C8.66 1.31 8.71 1.44 8.94 1.74C9.06 1.9 9.2 2.09 9.41 2.28C9.63 2.46 9.95 2.62 10.3 2.62L10.3 1.31C10.2 1.31 10.18 1.31 10.12 1.25C10.05 1.19 9.96 1.05 9.83 0.88C9.56 0.53 9.05 0 8.28 0ZM12.03 0.12C11.13 0.12 10.41 0.95 10.41 1.97C10.41 2.99 11.13 3.82 12.03 3.82C12.93 3.82 13.66 2.99 13.66 1.97C13.66 0.95 12.93 0.12 12.03 0.12ZM12.03 0.78C12.61 0.78 13.08 1.31 13.08 1.97C13.08 2.62 12.61 3.16 12.03 3.16C11.46 3.16 10.99 2.62 10.99 1.97C10.99 1.31 11.46 0.78 12.03 0.78ZM6.83 5.11C10.03 5.11 12.74 7.14 12.74 9.53C12.74 11.92 10.03 13.95 6.83 13.95C3.63 13.95 0.92 11.92 0.92 9.53C0.92 7.14 3.63 5.11 6.83 5.11ZM1.34 5.71C1.5 5.71 1.67 5.75 1.83 5.83C1.25 6.33 0.79 6.91 0.47 7.56C0.26 7.05 0.31 6.41 0.58 6.08C0.78 5.83 1.04 5.7 1.34 5.71ZM12.32 5.71C12.62 5.7 12.89 5.83 13.08 6.08C13.35 6.41 13.41 7.05 13.19 7.56C12.87 6.91 12.41 6.33 11.83 5.83C11.99 5.75 12.16 5.71 12.32 5.71ZM4.52 7.35C3.94 7.35 3.47 7.89 3.47 8.54C3.47 9.2 3.94 9.73 4.52 9.73C5.1 9.73 5.57 9.2 5.57 8.54C5.57 7.89 5.1 7.35 4.52 7.35ZM9.14 7.35C8.56 7.35 8.09 7.89 8.09 8.54C8.09 9.2 8.56 9.73 9.14 9.73C9.72 9.73 10.19 9.2 10.19 8.54C10.19 7.89 9.72 7.35 9.14 7.35ZM3.96 11.4C4.33 12.26 5.46 13.1 6.83 13.1C8.2 13.1 9.35 12.26 9.72 11.4C9.05 11.89 8 12.22 6.83 12.22C5.66 12.22 4.63 11.89 3.96 11.4Z" fill="#2D383F" fill-opacity="1.000000" fill-rule="evenodd"/></svg>
