<svg width="142.000000" height="42.000000" viewBox="0 0 142 42" fill="none" xmlns="http://www.w3.org/2000/svg" xmlns:xlink="http://www.w3.org/1999/xlink"><defs/><path id="logotype" d="M20.96 14.75L26.51 9.2L37.91 21.09L42.24 25.57C42.1 26.13 41.96 26.73 41.77 27.29C40.78 30.48 38.99 33.39 36.5 35.84C32.45 39.82 27.08 42 21.38 42C15.68 42 10.31 39.82 6.26 35.84C2.21 31.87 0 26.64 0 21C0 15.35 2.21 10.12 6.26 6.15C10.31 2.17 15.63 0 21.38 0C27.08 0 32.45 2.17 36.5 6.15C40.55 10.12 42.76 15.4 42.76 21C42.76 21.74 42.72 22.52 42.62 23.26L37.63 18.08C36.26 10.54 29.48 4.76 21.38 4.76C12.24 4.76 4.85 12.02 4.8 21C4.8 29.97 12.19 37.23 21.33 37.23C28.44 37.23 34.47 32.84 36.83 26.68L26.51 16.6L24.63 18.45L20.96 14.75ZM110.05 24.63C108.93 24.63 107.95 24.42 107.11 24.02C106.28 23.61 105.64 23.04 105.19 22.32C104.74 21.59 104.52 20.76 104.52 19.82C104.52 18.57 104.81 17.45 105.39 16.45C105.99 15.46 106.81 14.67 107.86 14.11C108.92 13.55 110.12 13.27 111.46 13.27C112.58 13.27 113.56 13.47 114.38 13.88C115.22 14.29 115.86 14.85 116.31 15.58C116.76 16.31 116.99 17.14 116.99 18.08C116.99 19.32 116.69 20.45 116.1 21.44C115.52 22.44 114.7 23.22 113.64 23.78C112.59 24.34 111.39 24.63 110.05 24.63ZM60.41 13.49L63.55 13.49L61.84 21.96L67.14 21.96L66.63 24.41L58.18 24.41L60.41 13.49ZM70.1 13.49L73.24 13.49L71.02 24.41L67.88 24.41L70.1 13.49ZM78.13 15.88L77.64 18.28L82.55 18.28L82.06 20.66L77.16 20.66L76.4 24.41L73.26 24.41L75.48 13.49L84.18 13.49L83.69 15.88L78.13 15.88ZM88.28 15.88L87.91 17.72L92.85 17.72L92.39 20.02L87.43 20.02L87.04 22.02L92.87 22.02L92.36 24.41L83.45 24.41L85.67 13.49L94.37 13.49L93.88 15.88L88.28 15.88ZM98.2 15.94L94.79 15.94L95.29 13.49L105.25 13.49L104.74 15.94L101.35 15.94L99.61 24.41L96.47 24.41L98.2 15.94ZM122.89 24.63C121.93 24.63 121.1 24.47 120.4 24.16C119.7 23.83 119.16 23.38 118.79 22.79C118.42 22.19 118.24 21.5 118.24 20.7C118.24 20.36 118.28 19.98 118.37 19.54L119.6 13.49L122.75 13.49L121.53 19.49C121.46 19.81 121.43 20.09 121.43 20.35C121.43 21.5 122.04 22.07 123.27 22.07C123.94 22.07 124.46 21.87 124.85 21.47C125.24 21.07 125.53 20.41 125.72 19.49L126.94 13.49L130.04 13.49L128.78 19.68C128.11 22.98 126.14 24.63 122.89 24.63ZM141.41 16.97C141.41 17.97 141.14 18.83 140.6 19.56C140.06 20.27 139.31 20.8 138.33 21.13L140.22 24.41L136.93 24.41L135.28 21.51L133.69 21.51L133.11 24.41L129.96 24.41L132.18 13.49L136.93 13.49C138.35 13.49 139.45 13.8 140.24 14.41C141.02 15.02 141.41 15.88 141.41 16.97ZM110.32 22.07C111.02 22.07 111.63 21.9 112.16 21.55C112.69 21.21 113.1 20.75 113.38 20.18C113.67 19.6 113.81 18.96 113.81 18.26C113.81 17.52 113.58 16.94 113.11 16.5C112.66 16.05 112.02 15.83 111.19 15.83C110.49 15.83 109.88 16 109.35 16.34Q109.03 16.55 108.77 16.82Q108.38 17.21 108.13 17.73C107.84 18.3 107.7 18.94 107.7 19.63C107.7 20.37 107.93 20.97 108.38 21.41Q108.43 21.46 108.48 21.5Q109.17 22.07 110.32 22.07ZM138.24 17.26C138.24 16.82 138.08 16.48 137.77 16.27C137.47 16.04 137.04 15.92 136.49 15.92L134.84 15.92L134.17 19.12L136.04 19.12Q137.09 19.12 137.66 18.64C138.05 18.31 138.24 17.86 138.24 17.26ZM19.5 23.35L15.73 27.24L7.86 27.24L19.45 16L31.13 27.24L23.78 27.24L19.5 23.35ZM60.28 34.7C59.89 34.7 59.55 34.62 59.23 34.45C58.92 34.28 58.68 34.05 58.5 33.76C58.33 33.46 58.24 33.14 58.24 32.77C58.24 32.41 58.33 32.08 58.5 31.78C58.68 31.49 58.92 31.26 59.23 31.09C59.55 30.92 59.89 30.84 60.28 30.84C60.66 30.84 61 30.92 61.31 31.09C61.62 31.25 61.86 31.49 62.04 31.78C62.22 32.08 62.3 32.41 62.3 32.77C62.3 33.14 62.22 33.47 62.04 33.76C61.86 34.06 61.62 34.29 61.31 34.45C61 34.62 60.66 34.7 60.28 34.7ZM60.28 34.34C60.58 34.34 60.86 34.28 61.11 34.14C61.35 34 61.55 33.82 61.69 33.58C61.83 33.34 61.9 33.07 61.9 32.77C61.9 32.47 61.83 32.21 61.69 31.97C61.55 31.72 61.35 31.54 61.11 31.4C60.86 31.27 60.58 31.2 60.28 31.2C59.97 31.2 59.69 31.27 59.44 31.4C59.2 31.54 59 31.72 58.86 31.97C58.72 32.21 58.65 32.47 58.65 32.77C58.65 33.07 58.72 33.34 58.86 33.58C59 33.82 59.2 34 59.44 34.14C59.69 34.28 59.97 34.34 60.28 34.34ZM81.7 33.18C81.91 33.23 82.07 33.31 82.18 33.43C82.29 33.54 82.35 33.68 82.35 33.85C82.35 34.02 82.29 34.16 82.17 34.29C82.06 34.42 81.9 34.53 81.7 34.6C81.5 34.67 81.28 34.7 81.04 34.7C80.83 34.7 80.63 34.67 80.42 34.61C80.22 34.55 80.04 34.46 79.89 34.35L80.03 34.06C80.16 34.16 80.31 34.23 80.49 34.29C80.67 34.34 80.85 34.37 81.03 34.37C81.3 34.37 81.51 34.32 81.68 34.22C81.86 34.12 81.94 33.99 81.94 33.82C81.94 33.66 81.87 33.55 81.73 33.46C81.59 33.38 81.4 33.33 81.16 33.33L80.66 33.33L80.66 33.05L81.14 33.05C81.35 33.05 81.53 33.01 81.66 32.93C81.79 32.85 81.86 32.74 81.86 32.6C81.86 32.45 81.79 32.33 81.63 32.24Q81.41 32.11 81.05 32.11C80.74 32.11 80.43 32.19 80.13 32.35L80.02 32.05C80.36 31.87 80.72 31.78 81.09 31.78C81.31 31.78 81.51 31.82 81.69 31.88C81.87 31.94 82.01 32.03 82.11 32.15C82.21 32.26 82.26 32.4 82.26 32.55C82.26 32.69 82.21 32.82 82.11 32.93C82.01 33.04 81.87 33.13 81.7 33.18ZM64.68 31.79C64.96 31.79 65.2 31.86 65.42 31.98C65.64 32.1 65.82 32.27 65.94 32.49C66.07 32.71 66.13 32.96 66.13 33.24C66.13 33.53 66.07 33.78 65.94 34C65.82 34.22 65.64 34.39 65.42 34.52C65.21 34.64 64.96 34.7 64.68 34.7C64.45 34.7 64.23 34.65 64.04 34.55C63.85 34.46 63.7 34.32 63.58 34.13L63.58 35.72L63.19 35.72L63.19 31.82L63.56 31.82L63.56 32.38C63.68 32.19 63.83 32.05 64.03 31.95C64.22 31.84 64.44 31.79 64.68 31.79ZM70.59 31.79C70.97 31.79 71.26 31.89 71.47 32.08C71.67 32.26 71.77 32.54 71.77 32.9L71.77 34.67L71.4 34.67L71.4 34.22C71.31 34.37 71.18 34.49 71 34.57C70.83 34.65 70.63 34.7 70.4 34.7C70.07 34.7 69.81 34.62 69.62 34.47C69.43 34.32 69.33 34.12 69.33 33.87C69.33 33.62 69.42 33.43 69.6 33.28C69.78 33.13 70.07 33.06 70.46 33.06L71.38 33.06L71.38 32.88C71.38 32.64 71.31 32.45 71.17 32.33C71.03 32.2 70.82 32.13 70.56 32.13C70.37 32.13 70.19 32.16 70.03 32.22C69.86 32.28 69.71 32.36 69.59 32.47L69.41 32.18C69.56 32.06 69.74 31.96 69.94 31.9C70.15 31.83 70.37 31.79 70.59 31.79ZM84.24 31.79C84.62 31.79 84.91 31.89 85.11 32.08C85.31 32.26 85.41 32.54 85.41 32.9L85.41 34.67L85.04 34.67L85.04 34.22C84.95 34.37 84.82 34.49 84.65 34.57C84.48 34.65 84.27 34.7 84.04 34.7C83.71 34.7 83.46 34.62 83.26 34.47C83.07 34.32 82.98 34.12 82.98 33.87C82.98 33.62 83.07 33.43 83.24 33.28C83.42 33.13 83.71 33.06 84.1 33.06L85.02 33.06L85.02 32.88C85.02 32.64 84.95 32.45 84.81 32.33C84.67 32.2 84.47 32.13 84.2 32.13C84.01 32.13 83.84 32.16 83.67 32.22C83.5 32.28 83.35 32.36 83.23 32.47L83.05 32.18C83.2 32.06 83.38 31.96 83.58 31.9C83.79 31.83 84.01 31.79 84.24 31.79ZM103.75 34.7C103.47 34.7 103.22 34.63 103 34.51C102.77 34.38 102.6 34.21 102.47 33.99C102.34 33.77 102.27 33.52 102.27 33.24C102.27 32.96 102.34 32.71 102.47 32.49C102.6 32.27 102.77 32.1 103 31.98C103.22 31.86 103.47 31.79 103.75 31.79C104.03 31.79 104.29 31.86 104.51 31.98C104.74 32.1 104.91 32.27 105.04 32.49C105.17 32.71 105.23 32.96 105.23 33.24C105.23 33.52 105.17 33.77 105.04 33.99C104.91 34.21 104.74 34.38 104.51 34.51C104.29 34.63 104.03 34.7 103.75 34.7ZM109.97 34.7C109.69 34.7 109.44 34.63 109.21 34.51C108.99 34.38 108.81 34.21 108.68 33.99C108.55 33.77 108.49 33.52 108.49 33.24C108.49 32.96 108.55 32.71 108.68 32.49C108.81 32.27 108.99 32.1 109.21 31.98C109.44 31.86 109.69 31.79 109.97 31.79C110.25 31.79 110.5 31.86 110.73 31.98C110.95 32.1 111.13 32.27 111.25 32.49C111.38 32.71 111.44 32.96 111.44 33.24C111.44 33.52 111.38 33.77 111.25 33.99C111.13 34.21 110.95 34.38 110.73 34.51C110.5 34.63 110.25 34.7 109.97 34.7ZM117.06 34.7C116.78 34.7 116.53 34.63 116.31 34.51C116.08 34.38 115.9 34.21 115.78 33.99C115.65 33.77 115.58 33.52 115.58 33.24C115.58 32.96 115.65 32.71 115.78 32.49C115.9 32.27 116.08 32.1 116.31 31.98C116.53 31.86 116.78 31.79 117.06 31.79C117.34 31.79 117.6 31.86 117.82 31.98C118.04 32.1 118.22 32.27 118.34 32.49C118.47 32.71 118.54 32.96 118.54 33.24C118.54 33.52 118.47 33.77 118.34 33.99C118.22 34.21 118.04 34.38 117.82 34.51C117.6 34.63 117.34 34.7 117.06 34.7ZM132.67 34.7C132.39 34.7 132.14 34.63 131.92 34.51C131.69 34.38 131.52 34.21 131.39 33.99C131.26 33.77 131.19 33.52 131.19 33.24C131.19 32.96 131.26 32.71 131.39 32.49C131.52 32.27 131.69 32.1 131.92 31.98C132.14 31.86 132.39 31.79 132.67 31.79C132.95 31.79 133.21 31.86 133.43 31.98C133.66 32.1 133.83 32.27 133.96 32.49C134.09 32.71 134.15 32.96 134.15 33.24C134.15 33.52 134.09 33.77 133.96 33.99C133.83 34.21 133.66 34.38 133.43 34.51C133.21 34.63 132.95 34.7 132.67 34.7ZM136.48 31.79C136.76 31.79 137 31.86 137.22 31.98C137.45 32.1 137.62 32.27 137.74 32.49Q137.77 32.52 137.78 32.56L137.78 32.56Q137.93 32.87 137.93 33.24C137.93 33.53 137.87 33.78 137.74 34C137.62 34.22 137.45 34.39 137.22 34.52C137.01 34.64 136.76 34.7 136.48 34.7Q136.14 34.7 135.86 34.56Q135.85 34.56 135.84 34.55C135.66 34.46 135.5 34.32 135.38 34.13L135.38 35.72L134.99 35.72L134.99 31.82L135.36 31.82L135.36 32.38C135.48 32.19 135.64 32.05 135.83 31.95C136.02 31.84 136.24 31.79 136.48 31.79ZM69.03 32.16L67.37 32.16L67.37 34.67L66.97 34.67L66.97 31.82L69.03 31.82L69.03 32.16ZM72.82 31.82L73.21 31.82L73.21 33.08L75.04 33.08L75.04 31.82L75.43 31.82L75.43 34.67L75.04 34.67L75.04 33.41L73.21 33.41L73.21 34.67L72.82 34.67L72.82 31.82ZM76.54 31.82L76.93 31.82L76.93 34.08L78.87 31.82L79.22 31.82L79.22 34.67L78.83 34.67L78.83 32.4L76.9 34.67L76.54 34.67L76.54 31.82ZM89.49 34.33L89.49 35.38L89.12 35.38L89.12 34.67L86.46 34.67L86.46 31.82L86.85 31.82L86.85 34.33L88.62 34.33L88.62 31.82L89.02 31.82L89.02 34.33L89.49 34.33ZM90.23 31.82L90.63 31.82L90.63 34.08L92.57 31.82L92.91 31.82L92.91 34.67L92.52 34.67L92.52 32.4L90.59 34.67L90.23 34.67L90.23 31.82ZM96.27 31.82L96.27 34.67L95.91 34.67L95.91 33.72L94.89 33.72L94.21 34.67L93.79 34.67L94.51 33.67C94.29 33.61 94.11 33.5 93.99 33.36C93.87 33.21 93.81 33.02 93.81 32.79C93.81 32.47 93.92 32.23 94.14 32.06C94.36 31.9 94.66 31.82 95.05 31.82L96.27 31.82ZM101.44 31.82L101.44 34.67L101.05 34.67L101.05 32.16L99.23 32.16L99.23 34.67L98.83 34.67L98.83 31.82L101.44 31.82ZM107.78 34.67L106.86 33.48L105.93 34.67L105.49 34.67L106.64 33.2L105.55 31.82L105.99 31.82L106.86 32.93L107.73 31.82L108.16 31.82L107.07 33.2L108.23 34.67L107.78 34.67ZM115.1 34.33L115.1 35.36L114.73 35.36L114.73 34.67L112.13 34.67L112.13 35.36L111.76 35.36L111.76 34.33L111.92 34.33C112.12 34.32 112.25 34.18 112.32 33.91C112.39 33.64 112.44 33.26 112.47 32.77L112.5 31.82L114.65 31.82L114.65 34.33L115.1 34.33ZM121.23 33.19C121.62 33.28 121.82 33.52 121.82 33.89C121.82 34.14 121.72 34.33 121.54 34.47C121.35 34.6 121.07 34.67 120.7 34.67L119.38 34.67L119.38 31.82L120.66 31.82C120.99 31.82 121.25 31.88 121.44 32C121.62 32.13 121.72 32.31 121.72 32.55C121.72 32.7 121.67 32.84 121.59 32.95C121.5 33.06 121.38 33.14 121.23 33.19ZM126.03 33.19C126.43 33.28 126.62 33.52 126.62 33.89C126.62 34.14 126.53 34.33 126.34 34.47C126.15 34.6 125.87 34.67 125.5 34.67L124.18 34.67L124.18 31.82L125.46 31.82C125.8 31.82 126.06 31.88 126.24 32C126.43 32.13 126.52 32.31 126.52 32.55C126.52 32.7 126.48 32.84 126.39 32.95C126.31 33.06 126.19 33.14 126.03 33.19ZM131.04 32.16L129.38 32.16L129.38 34.67L128.99 34.67L128.99 31.82L131.04 31.82L131.04 32.16ZM140 32.82C140.36 32.83 140.64 32.91 140.83 33.06C141.02 33.22 141.12 33.44 141.12 33.74C141.12 34.04 141.01 34.27 140.81 34.44C140.6 34.6 140.31 34.68 139.92 34.67L138.77 34.67L138.77 31.82L139.17 31.82L139.17 32.81L140 32.82ZM141.6 31.82L142 31.82L142 34.67L141.6 34.67L141.6 31.82ZM119.76 33.08L120.63 33.08C120.85 33.08 121.03 33.04 121.14 32.96C121.27 32.88 121.33 32.76 121.33 32.6C121.33 32.44 121.27 32.32 121.14 32.24C121.03 32.16 120.85 32.12 120.63 32.12L119.76 32.12L119.76 33.08ZM124.56 33.08L125.44 33.08C125.66 33.08 125.83 33.04 125.95 32.96C126.07 32.88 126.13 32.76 126.13 32.6C126.13 32.44 126.07 32.32 125.95 32.24C125.83 32.16 125.66 32.12 125.44 32.12L124.56 32.12L124.56 33.08ZM64.66 34.35Q64.89 34.35 65.1 34.27L65.1 34.27Q65.15 34.25 65.21 34.22C65.37 34.12 65.5 33.99 65.59 33.82C65.69 33.65 65.74 33.46 65.74 33.24Q65.74 32.94 65.61 32.7L65.61 32.7Q65.6 32.68 65.59 32.67C65.5 32.5 65.37 32.37 65.21 32.27Q65.14 32.23 65.07 32.21L65.07 32.21Q64.88 32.13 64.66 32.13C64.45 32.13 64.26 32.18 64.1 32.27C63.94 32.37 63.81 32.5 63.71 32.67C63.62 32.83 63.57 33.03 63.57 33.24C63.57 33.46 63.62 33.65 63.71 33.82C63.81 33.99 63.94 34.12 64.1 34.22C64.26 34.31 64.45 34.35 64.66 34.35ZM103.75 34.35C103.96 34.35 104.14 34.31 104.31 34.22C104.47 34.12 104.6 33.99 104.69 33.82C104.79 33.65 104.83 33.46 104.83 33.24C104.83 33.03 104.79 32.83 104.69 32.66C104.6 32.49 104.47 32.36 104.31 32.27C104.14 32.18 103.96 32.13 103.75 32.13C103.55 32.13 103.36 32.18 103.2 32.27C103.03 32.36 102.91 32.49 102.81 32.66Q102.8 32.67 102.8 32.68L102.8 32.68Q102.67 32.93 102.67 33.24C102.67 33.46 102.72 33.65 102.81 33.82C102.91 33.99 103.03 34.12 103.2 34.22C103.36 34.31 103.55 34.35 103.75 34.35ZM109.97 34.35C110.18 34.35 110.36 34.31 110.52 34.22C110.69 34.12 110.82 33.99 110.91 33.82C111 33.65 111.05 33.46 111.05 33.24C111.05 33.03 111 32.83 110.91 32.66C110.82 32.49 110.69 32.36 110.52 32.27C110.36 32.18 110.18 32.13 109.97 32.13C109.76 32.13 109.58 32.18 109.41 32.27C109.25 32.36 109.12 32.49 109.02 32.66C108.93 32.83 108.89 33.03 108.89 33.24C108.89 33.46 108.93 33.65 109.02 33.82C109.12 33.99 109.25 34.12 109.41 34.22C109.58 34.31 109.76 34.35 109.97 34.35ZM117.06 34.35Q117.34 34.35 117.57 34.24Q117.59 34.23 117.62 34.22C117.78 34.12 117.91 33.99 118 33.82C118.09 33.65 118.14 33.46 118.14 33.24C118.14 33.03 118.09 32.83 118 32.66C117.91 32.49 117.78 32.36 117.62 32.27Q117.58 32.25 117.54 32.23Q117.32 32.13 117.06 32.13C116.86 32.13 116.67 32.18 116.51 32.27C116.34 32.36 116.21 32.49 116.12 32.66C116.03 32.83 115.98 33.03 115.98 33.24C115.98 33.46 116.03 33.65 116.12 33.82C116.21 33.99 116.34 34.12 116.51 34.22C116.67 34.31 116.86 34.35 117.06 34.35ZM132.67 34.35C132.88 34.35 133.06 34.31 133.23 34.22C133.39 34.12 133.52 33.99 133.61 33.82C133.71 33.65 133.75 33.46 133.75 33.24C133.75 33.03 133.71 32.83 133.61 32.66C133.52 32.49 133.39 32.36 133.23 32.27C133.06 32.18 132.88 32.13 132.67 32.13C132.47 32.13 132.28 32.18 132.12 32.27C131.95 32.36 131.83 32.49 131.73 32.66Q131.73 32.67 131.72 32.67Q131.72 32.68 131.72 32.68Q131.59 32.93 131.59 33.24C131.59 33.46 131.64 33.65 131.73 33.82C131.83 33.99 131.95 34.12 132.12 34.22C132.28 34.31 132.47 34.35 132.67 34.35ZM136.46 34.35C136.66 34.35 136.84 34.31 137.01 34.22C137.17 34.12 137.3 33.99 137.4 33.82C137.49 33.65 137.54 33.46 137.54 33.24C137.54 33.03 137.49 32.83 137.4 32.67C137.3 32.5 137.17 32.37 137.01 32.27C136.84 32.18 136.66 32.13 136.46 32.13C136.25 32.13 136.06 32.18 135.9 32.27C135.74 32.37 135.61 32.5 135.51 32.67C135.42 32.83 135.37 33.03 135.37 33.24C135.37 33.46 135.42 33.65 135.51 33.82C135.61 33.99 135.74 34.12 135.9 34.22C136.06 34.31 136.25 34.35 136.46 34.35ZM94.21 32.8C94.21 33.23 94.48 33.44 95.03 33.44L95.91 33.44L95.91 32.16L95.06 32.16C94.49 32.16 94.21 32.37 94.21 32.8ZM112.82 32.79C112.81 33.2 112.77 33.53 112.72 33.8C112.67 34.06 112.58 34.23 112.44 34.33L114.25 34.33L114.25 32.16L112.86 32.16L112.82 32.79ZM139.9 34.38C140.17 34.38 140.37 34.33 140.51 34.22C140.65 34.11 140.72 33.95 140.72 33.74Q140.72 33.5 140.6 33.36Q140.57 33.31 140.52 33.27C140.38 33.17 140.17 33.12 139.9 33.11L139.17 33.1L139.17 34.37L139.9 34.38ZM70.46 34.39Q70.79 34.39 71.03 34.25C71.18 34.14 71.3 34 71.38 33.81L71.38 33.34L70.47 33.34C69.97 33.34 69.72 33.52 69.72 33.86C69.72 34.02 69.79 34.15 69.91 34.25Q70.11 34.39 70.46 34.39ZM84.1 34.39Q84.43 34.39 84.67 34.25C84.83 34.14 84.94 34 85.02 33.81L85.02 33.34L84.11 33.34C83.61 33.34 83.36 33.52 83.36 33.86C83.36 34.02 83.43 34.15 83.56 34.25C83.69 34.34 83.87 34.39 84.1 34.39ZM120.68 34.37C120.93 34.37 121.12 34.33 121.24 34.25C121.37 34.17 121.43 34.04 121.43 33.87C121.43 33.7 121.37 33.58 121.26 33.5C121.15 33.41 120.97 33.37 120.72 33.37L119.76 33.37L119.76 34.37L120.68 34.37ZM125.49 34.37C125.74 34.37 125.92 34.33 126.05 34.25C126.18 34.17 126.24 34.04 126.24 33.87C126.24 33.7 126.18 33.58 126.07 33.5C125.95 33.41 125.77 33.37 125.52 33.37L124.56 33.37L124.56 34.37L125.49 34.37Z" fill="#2D383F" fill-opacity="1.000000" fill-rule="evenodd"/></svg>
