<svg width="10.000000" height="16.000000" viewBox="0 0 10 16" fill="none" xmlns="http://www.w3.org/2000/svg" xmlns:xlink="http://www.w3.org/1999/xlink"><defs/><path id="icon/odnoklassniki" d="M4.46 2.41C5.44 2.41 6.23 3.18 6.23 4.13C6.23 5.07 5.44 5.83 4.46 5.83C3.49 5.83 2.7 5.07 2.7 4.13C2.7 3.18 3.49 2.41 4.46 2.41ZM4.46 8.25C6.81 8.25 8.72 6.4 8.72 4.13C8.72 1.85 6.81 0 4.46 0C2.12 0 0.21 1.85 0.21 4.13C0.21 6.4 2.12 8.25 4.46 8.25ZM6.19 11.62C7.05 11.43 7.89 11.1 8.66 10.63C9.24 10.27 9.41 9.53 9.05 8.96C8.68 8.39 7.91 8.22 7.33 8.58C5.59 9.64 3.34 9.64 1.6 8.58C1.02 8.22 0.25 8.39 -0.12 8.96C-0.49 9.53 -0.31 10.27 0.27 10.63C1.04 11.1 1.88 11.43 2.74 11.62L0.36 13.93C-0.12 14.4 -0.12 15.17 0.36 15.64C0.61 15.87 0.93 15.99 1.25 15.99C1.56 15.99 1.88 15.87 2.13 15.64L4.46 13.37L6.8 15.64C7.29 16.11 8.08 16.11 8.57 15.64C9.05 15.17 9.05 14.4 8.57 13.93L6.19 11.62Z" fill="#2D383F" fill-opacity="1.000000" fill-rule="evenodd"/></svg>
