<svg width="17.000000" height="9.000000" viewBox="0 0 17 9" fill="none" xmlns="http://www.w3.org/2000/svg" xmlns:xlink="http://www.w3.org/1999/xlink"><defs/><path id="icon/vk" d="M16.5 8.02C16.45 7.95 16.17 7.38 14.81 6.21C13.39 4.98 13.58 5.18 15.29 3.06C16.34 1.77 16.75 0.98 16.62 0.64C16.5 0.32 15.73 0.41 15.73 0.41L13.18 0.42C13.18 0.42 12.99 0.4 12.85 0.48C12.71 0.55 12.62 0.73 12.62 0.73C12.62 0.73 12.22 1.73 11.68 2.58C10.54 4.37 10.09 4.47 9.9 4.36C9.47 4.1 9.58 3.31 9.58 2.76C9.58 1.02 9.86 0.29 9.03 0.11C8.75 0.05 8.55 0 7.84 0C6.92 -0.01 6.15 0 5.72 0.2C5.43 0.33 5.2 0.62 5.34 0.64C5.51 0.66 5.89 0.74 6.09 0.99C6.36 1.32 6.35 2.07 6.35 2.07C6.35 2.07 6.5 4.11 5.99 4.37C5.65 4.54 5.18 4.19 4.16 2.56C3.64 1.73 3.25 0.8 3.25 0.8C3.25 0.8 3.18 0.63 3.04 0.54C2.88 0.43 2.65 0.39 2.65 0.39L0.22 0.41C0.22 0.41 -0.14 0.42 -0.27 0.56C-0.39 0.7 -0.28 0.97 -0.28 0.97C-0.28 0.97 1.62 5.09 3.77 7.17C5.74 9.08 7.98 8.96 7.98 8.96L8.99 8.96C8.99 8.96 9.3 8.93 9.45 8.77C9.6 8.62 9.59 8.35 9.59 8.35C9.59 8.35 9.57 7.09 10.21 6.9C10.83 6.72 11.63 8.13 12.48 8.67C13.12 9.08 13.61 8.99 13.61 8.99L15.87 8.96C15.87 8.96 17.06 8.89 16.5 8.02Z" fill="#2D383F" fill-opacity="1.000000" fill-rule="evenodd"/></svg>
