<svg width="12.000000" height="12.000000" viewBox="0 0 12 12" fill="none" xmlns="http://www.w3.org/2000/svg" xmlns:xlink="http://www.w3.org/1999/xlink"><defs><clipPath id="clip32_571"><rect id="icon/moon" width="12.000000" height="12.000000" fill="white" fill-opacity="0"/></clipPath></defs><g clip-path="url(#clip32_571)"><path id="icon/moon" d="M11.19 6.75C11.08 6.72 10.97 6.75 10.87 6.82C10.51 7.13 10.09 7.38 9.63 7.55C9.2 7.71 8.72 7.8 8.22 7.8C7.09 7.8 6.06 7.34 5.32 6.6C4.58 5.85 4.12 4.82 4.12 3.68C4.12 3.21 4.21 2.75 4.35 2.33C4.5 1.88 4.72 1.47 5.02 1.12C5.14 0.97 5.11 0.75 4.96 0.62C4.86 0.55 4.75 0.52 4.64 0.55C3.45 0.87 2.42 1.59 1.68 2.54C0.97 3.47 0.54 4.64 0.54 5.91C0.54 7.43 1.15 8.82 2.16 9.83C3.16 10.83 4.54 11.45 6.06 11.45C7.34 11.45 8.53 11 9.48 10.26C10.44 9.5 11.14 8.43 11.43 7.2C11.5 6.99 11.39 6.79 11.19 6.75ZM9.06 9.67C8.25 10.32 7.22 10.71 6.09 10.71C4.76 10.71 3.57 10.16 2.7 9.29C1.84 8.43 1.29 7.22 1.29 5.9C1.29 4.79 1.66 3.78 2.28 2.97C2.72 2.41 3.26 1.95 3.89 1.63C3.82 1.78 3.75 1.94 3.69 2.1C3.51 2.61 3.43 3.14 3.43 3.7C3.43 5.03 3.97 6.25 4.83 7.11C5.7 7.98 6.91 8.53 8.24 8.53C8.82 8.53 9.38 8.43 9.89 8.23C10.08 8.16 10.26 8.09 10.42 8.01C10.09 8.65 9.63 9.22 9.06 9.67Z" fill="#FFFFFF" fill-opacity="1.000000" fill-rule="evenodd"/></g></svg>
