<svg width="25.000000" height="25.000000" viewBox="0 0 25 25" fill="none" xmlns="http://www.w3.org/2000/svg" xmlns:xlink="http://www.w3.org/1999/xlink">
	<defs>
		<clipPath id="clip809_714">
			<rect id="mountain" width="25.000000" height="25.000000" fill="white" fill-opacity="0"/>
		</clipPath>
	</defs>
	<rect id="mountain" width="25.000000" height="25.000000" fill="#FFFFFF" fill-opacity="1.000000"/>
	<g clip-path="url(#clip809_714)">
		<path id="Vector" d="M23.41 24.18L19.37 14.79L15.55 5.9C15.45 5.66 15.17 5.55 14.93 5.65C14.81 5.7 14.72 5.79 14.68 5.9L11.27 13.81L9.93 16.91L7 10.15C6.9 9.91 6.62 9.8 6.38 9.9C6.27 9.95 6.17 10.04 6.13 10.15L3.37 16.51L0.04 24.18C-0.07 24.42 0.04 24.7 0.28 24.81C0.34 24.83 0.41 24.85 0.47 24.85L22.97 24.85C23.24 24.85 23.45 24.63 23.45 24.37C23.45 24.3 23.44 24.24 23.41 24.18ZM15.11 7.29L18.21 14.49L17.12 14.49L15.15 12.32C14.98 12.12 14.67 12.11 14.48 12.29C14.45 12.31 14.42 12.35 14.4 12.38L13.66 13.52L12.43 13.52L15.11 7.29ZM6.57 11.53L9.01 17.18L7.68 17.18C7.52 17.18 7.36 17.27 7.28 17.4L6.8 18.16L5.57 16.43C5.48 16.3 5.33 16.22 5.18 16.22L4.54 16.22L6.57 11.53ZM1.22 23.89L4.13 17.18L4.93 17.18L6.42 19.3C6.51 19.43 6.65 19.5 6.81 19.5C6.97 19.5 7.11 19.42 7.2 19.28L7.93 18.15L9.42 18.15L11.91 23.87L1.22 23.89ZM12.95 23.89L10.45 18.12L12.02 14.47L13.93 14.47C14.09 14.47 14.24 14.39 14.33 14.25L14.86 13.43L16.55 15.3C16.64 15.4 16.77 15.46 16.9 15.46L18.61 15.46L22.24 23.91L12.95 23.89Z" fill="#2D383F" fill-opacity="1.000000" fill-rule="evenodd"/>
		<path id="Vector" d="M7.61 2.08C7.16 0.92 5.85 0.34 4.69 0.79C3.83 1.13 3.26 1.96 3.26 2.88C3.25 2.97 3.25 3.05 3.26 3.13C2.13 3.66 1.64 4.99 2.16 6.12C2.53 6.9 3.3 7.41 4.16 7.42L4.19 7.44L7.53 7.44C9.01 7.47 10.23 6.28 10.25 4.8C10.27 3.32 9.09 2.1 7.61 2.08ZM7.55 6.5L4.21 6.5C3.5 6.58 2.86 6.06 2.79 5.34C2.71 4.63 3.23 3.99 3.95 3.92C4.21 3.87 4.37 3.61 4.32 3.36C4.32 3.34 4.31 3.32 4.31 3.3C4.26 3.16 4.23 3.02 4.23 2.88C4.23 2.17 4.81 1.58 5.52 1.58C6.16 1.57 6.7 2.03 6.81 2.65C6.85 2.91 7.09 3.08 7.34 3.05C7.41 3.04 7.48 3.04 7.55 3.05C8.51 3.05 9.28 3.82 9.28 4.77C9.28 5.73 8.51 6.5 7.55 6.5Z" fill="#2D383F" fill-opacity="1.000000" fill-rule="evenodd"/>
		<path id="Vector" d="M23.69 2.63C23.7 2.55 23.7 2.47 23.69 2.39C23.69 1.14 22.67 0.14 21.43 0.14C20.51 0.15 19.69 0.71 19.35 1.56C17.87 1.59 16.7 2.81 16.72 4.29C16.74 5.77 17.96 6.95 19.45 6.93L22.79 6.93C24.03 6.9 25.02 5.88 24.99 4.63C24.98 3.77 24.47 3 23.69 2.63ZM24.05 4.94C23.92 5.53 23.41 5.96 22.8 5.97L19.46 5.97C18.5 5.97 17.73 5.19 17.73 4.24C17.73 3.28 18.5 2.51 19.46 2.51C19.53 2.51 19.6 2.51 19.67 2.51C19.92 2.54 20.14 2.38 20.19 2.14C20.31 1.43 20.98 0.96 21.69 1.08C22.39 1.2 22.87 1.86 22.75 2.57C22.74 2.64 22.72 2.71 22.69 2.78C22.61 3.03 22.74 3.3 22.99 3.39C23.01 3.39 23.03 3.4 23.05 3.4C23.75 3.55 24.2 4.24 24.05 4.94Z" fill="#2D383F" fill-opacity="1.000000" fill-rule="evenodd"/>
	</g>
</svg>
