<svg width="25.000000" height="25.000000" viewBox="0 0 25 25" fill="none" xmlns="http://www.w3.org/2000/svg" xmlns:xlink="http://www.w3.org/1999/xlink">
	<defs>
		<clipPath id="clip809_704">
			<rect id="boots" width="25.000000" height="25.000000" fill="white" fill-opacity="0"/>
		</clipPath>
	</defs>
	<rect id="boots" width="25.000000" height="25.000000" fill="#FFFFFF" fill-opacity="1.000000"/>
	<g clip-path="url(#clip809_704)">
		<path id="Vector" d="M24.64 16.26C25.42 13.83 24.78 11.07 24.1 9.16C24.09 9.08 24.07 9.01 24.03 8.95C23.8 8.33 23.59 7.81 23.41 7.45C23.74 7.31 23.96 6.99 23.96 6.63L23.96 2.93C23.96 2.44 23.57 2.04 23.08 2.04L12.17 2.04C11.93 2.04 11.73 2.24 11.73 2.49C11.73 2.5 11.73 2.51 11.73 2.52C11.88 5.18 11.68 6.98 11.12 8.26C11.11 8.27 11.1 8.28 11.09 8.3C11.09 8.32 11.09 8.34 11.09 8.37C10.87 8.83 10.58 9.25 10.23 9.62L10.19 9.65C10.19 9.65 10.19 9.65 10.19 9.68C9.67 10.18 9.07 10.58 8.41 10.88C7.27 11.38 6.1 11.82 4.91 12.18L4.68 12.26C0.53 13.63 -0.01 16.13 0 17.38C0 17.4 0 17.42 0 17.43L0 20.6C0 20.76 0.08 20.9 0.21 20.98C1.23 21.6 2.32 22.07 3.47 22.39C3.71 22.46 3.95 22.32 4.02 22.08C4.03 22.04 4.04 21.99 4.04 21.95L4.04 21.85L4.69 21.85L4.69 22.29C4.68 22.51 4.84 22.7 5.06 22.73C5.45 22.79 5.83 22.84 6.21 22.87C6.33 22.89 6.46 22.84 6.55 22.76C6.64 22.67 6.69 22.56 6.69 22.43L6.69 21.87L7.34 21.87L7.34 22.5C7.34 22.75 7.54 22.95 7.79 22.95C8.16 22.95 8.53 22.95 8.93 22.89C9.16 22.87 9.34 22.68 9.34 22.45L9.34 21.87L9.99 21.87L9.99 22.26C9.99 22.51 10.18 22.71 10.43 22.71C10.46 22.71 10.48 22.71 10.51 22.71C11.32 22.58 12.12 22.39 12.91 22.13L12.98 22.1C16.09 20.33 18.06 21.79 18.14 21.85C18.21 21.91 18.31 21.94 18.41 21.94L18.96 21.94C19.2 21.94 19.4 21.74 19.4 21.5L19.4 20.75L20.04 20.75L20.04 21.49C20.04 21.74 20.24 21.93 20.48 21.93L21.91 21.93C22.15 21.93 22.35 21.74 22.35 21.49L22.35 20.75L23.01 20.75L23.01 21.49C23.01 21.74 23.21 21.93 23.45 21.93L24.55 21.93C24.8 21.93 24.99 21.74 24.99 21.49L24.99 16.7C25 16.49 24.85 16.3 24.64 16.26ZM14.11 2.94L14.47 2.94L23.05 2.94L23.05 6.62L14.11 6.62L14.11 2.94ZM8.53 11.79L8.53 11.82C8.9 12.11 9.23 12.44 9.53 12.8C9.45 12.93 9.41 13.09 9.41 13.24C9.41 13.71 9.79 14.09 10.26 14.1C10.73 14.1 11.11 13.72 11.11 13.25C11.11 12.81 10.78 12.44 10.34 12.4C10.06 12.02 9.74 11.67 9.38 11.35C9.78 11.13 10.15 10.86 10.5 10.56C10.93 10.97 11.33 11.4 11.7 11.86C11.54 12.3 11.77 12.79 12.22 12.94C12.66 13.1 13.14 12.86 13.3 12.42C13.45 11.98 13.22 11.5 12.78 11.34C12.68 11.31 12.59 11.29 12.49 11.29L12.38 11.29C12 10.8 11.57 10.34 11.11 9.91C11.33 9.65 11.51 9.37 11.67 9.08C12.36 9.44 13.03 9.84 13.66 10.28C13.66 10.75 14.04 11.14 14.51 11.14C14.98 11.15 15.37 10.77 15.38 10.29C15.38 9.82 15 9.43 14.53 9.43C14.39 9.43 14.26 9.46 14.14 9.52C13.47 9.06 12.77 8.65 12.05 8.29C12.53 7 12.74 5.29 12.64 2.96L13.22 2.96L13.22 6.63C13.22 7.12 13.62 7.52 14.11 7.52L22.43 7.52C22.54 7.76 22.74 8.17 22.95 8.7L22.77 8.7C20.07 8.72 17.9 10.92 17.92 13.62C17.93 15.15 18.66 16.59 19.89 17.5C16.3 18.45 10.9 19.57 6.36 19.28C7.2 15.92 6.19 13.86 5.54 12.95C6.56 12.62 7.55 12.23 8.53 11.79ZM4.65 13.21C5.13 13.77 6.38 15.67 5.46 19.15C3.86 19.03 2.31 18.56 0.91 17.77C0.89 17.67 0.88 17.57 0.87 17.47L0.87 17.44C0.84 16.49 1.19 14.45 4.65 13.21ZM23.9 21.05L23.9 20.31C23.9 20.06 23.7 19.86 23.45 19.86L21.91 19.86C21.67 19.86 21.47 20.06 21.47 20.31L21.47 21.05L20.92 21.05L20.92 20.31C20.92 20.06 20.73 19.86 20.48 19.86L18.95 19.86C18.7 19.86 18.5 20.06 18.5 20.31L18.5 21.03C17.9 20.65 15.7 19.55 12.57 21.3C12.01 21.49 11.44 21.64 10.87 21.75L10.87 21.44C10.87 21.2 10.67 21 10.42 21L8.89 21C8.65 21 8.45 21.2 8.45 21.44L8.45 22.05L8.22 22.05L8.22 21.43C8.22 21.18 8.02 20.98 7.78 20.98L6.24 20.98C5.99 20.98 5.79 21.18 5.79 21.43L5.79 21.96L5.57 21.92L5.57 21.43C5.57 21.18 5.37 20.98 5.12 20.98L3.58 20.98C3.36 20.98 3.17 21.15 3.14 21.37C2.35 21.12 1.59 20.77 0.87 20.36L0.87 18.77C2.81 19.79 5.31 20.18 7.98 20.18C15.05 20.18 23.15 17.47 24.1 17.15L24.11 21.05L23.9 21.05ZM23.68 16.36C23.3 16.49 22.38 16.81 21.09 17.15C19.11 16.19 18.28 13.8 19.24 11.81C19.89 10.45 21.26 9.58 22.77 9.56C22.95 9.56 23.12 9.57 23.29 9.59L23.3 9.6C23.95 11.48 24.54 14.17 23.68 16.36Z" fill="#2D383F" fill-opacity="1.000000" fill-rule="evenodd"/>
		<path id="Vector" d="M15.82 3.48C15.1 3.48 14.52 4.06 14.52 4.77C14.53 5.48 15.1 6.06 15.82 6.06C16.53 6.06 17.11 5.48 17.11 4.77C17.11 4.06 16.53 3.48 15.82 3.48ZM15.82 5.17C15.59 5.17 15.41 4.99 15.41 4.77C15.41 4.55 15.59 4.37 15.82 4.37C16.04 4.37 16.22 4.55 16.22 4.77C16.22 4.99 16.04 5.17 15.82 5.17Z" fill="#2D383F" fill-opacity="1.000000" fill-rule="evenodd"/>
	</g>
</svg>
