<svg width="25.000000" height="25.000000" viewBox="0 0 25 25" fill="none" xmlns="http://www.w3.org/2000/svg" xmlns:xlink="http://www.w3.org/1999/xlink"><defs><clipPath id="clip809_725"><rect id="pine-tree" width="25.000000" height="25.000000" fill="white" fill-opacity="0"/></clipPath></defs><rect id="pine-tree" width="25.000000" height="25.000000" fill="#FFFFFF" fill-opacity="1.000000"/><g clip-path="url(#clip809_725)"><path id="Vector" d="M24.59 18.08L19.68 12.46L22.05 12.46C22.33 12.46 22.55 12.24 22.55 11.96C22.55 11.85 22.51 11.75 22.45 11.66L18.51 6.48L20.51 6.48C20.79 6.48 21.01 6.25 21.01 5.98C21.01 5.86 20.97 5.74 20.89 5.65L16.07 0.16C15.88 -0.04 15.57 -0.06 15.36 0.12C15.34 0.13 15.33 0.15 15.31 0.16L10.49 5.64C10.3 5.85 10.32 6.17 10.52 6.35C10.62 6.43 10.74 6.48 10.86 6.48L12.89 6.48L11.68 8.06L8.43 4.37C8.25 4.16 7.93 4.14 7.72 4.33C7.71 4.34 7.69 4.35 7.68 4.37L3.56 9.06C3.37 9.26 3.39 9.58 3.6 9.76C3.69 9.84 3.81 9.89 3.93 9.89L5.52 9.89L2.22 14.2C2.06 14.43 2.11 14.74 2.33 14.9C2.41 14.97 2.51 15 2.62 15L4.47 15L0.4 19.69C0.22 19.9 0.24 20.21 0.45 20.39C0.54 20.47 0.66 20.51 0.77 20.51L6.32 20.51L6.32 24.02C6.32 24.56 6.75 25 7.29 25L8.82 25C9.36 25 9.79 24.56 9.8 24.03C9.8 24.03 9.8 24.02 9.8 24.02L9.8 20.51L13.96 20.51L13.96 24.02C13.96 24.56 14.39 25 14.93 25L16.46 25C16.99 25 17.43 24.56 17.43 24.02L17.43 18.91L24.21 18.91C24.49 18.91 24.71 18.68 24.71 18.41C24.71 18.29 24.67 18.17 24.59 18.08ZM8.79 23.99L7.32 24.02L7.29 20.51L8.79 20.51L8.79 23.99ZM13.96 19.51L1.88 19.51L5.98 14.84C6.16 14.63 6.15 14.31 5.94 14.13C5.84 14.04 5.72 13.99 5.59 14L3.64 14L6.93 9.68C7.1 9.46 7.06 9.15 6.84 8.98C6.75 8.91 6.65 8.88 6.54 8.88L5.03 8.88L8.04 5.45L11.05 8.87L8.93 11.66C8.76 11.88 8.81 12.2 9.02 12.37C9.11 12.43 9.22 12.47 9.33 12.47L11.71 12.47L6.8 18.08C6.62 18.29 6.64 18.61 6.84 18.79C6.94 18.87 7.05 18.91 7.17 18.92L13.96 18.92L13.96 19.51ZM16.43 23.98L14.96 24.02L14.93 18.91L16.43 18.91L16.43 23.98ZM16.46 17.91L8.28 17.91L13.18 12.29C13.37 12.09 13.35 11.77 13.14 11.59C13.05 11.51 12.93 11.46 12.81 11.46L10.35 11.46L14.31 6.28C14.47 6.06 14.43 5.74 14.21 5.58C14.12 5.51 14.02 5.48 13.91 5.48L11.99 5.48L15.71 1.26L19.41 5.48L17.47 5.48C17.2 5.48 16.97 5.7 16.97 5.98C16.97 6.09 17.01 6.2 17.08 6.28L21.01 11.46L18.57 11.46C18.29 11.46 18.07 11.69 18.07 11.96C18.07 12.09 18.12 12.2 18.2 12.29L23.1 17.91L16.46 17.91Z" fill="#2D383F" fill-opacity="1.000000" fill-rule="evenodd"/></g></svg>
