<svg width="25.000000" height="25.000000" viewBox="0 0 25 25" fill="none" xmlns="http://www.w3.org/2000/svg" xmlns:xlink="http://www.w3.org/1999/xlink"><defs><clipPath id="clip809_690"><rect id="map" width="25.000000" height="25.000000" fill="white" fill-opacity="0"/></clipPath></defs><rect id="map" width="25.000000" height="25.000000" fill="#FFFFFF" fill-opacity="1.000000"/><g clip-path="url(#clip809_690)"><path id="Vector" d="M24.16 22.28L24.16 6.7C24.18 6.44 23.98 6.22 23.72 6.21C23.67 6.21 23.62 6.22 23.56 6.23L23.56 6.26L21.48 6.91C21.7 6.33 21.83 5.71 21.86 5.09C21.86 2.28 19.58 0 16.77 0C13.96 0 11.67 2.28 11.67 5.09C11.71 5.68 11.83 6.27 12.03 6.83L8.59 5.59C8.55 5.59 8.51 5.59 8.47 5.59L8.43 5.59C8.37 5.6 8.32 5.61 8.27 5.63L1.12 8.41C0.96 8.47 0.84 8.62 0.82 8.79L0.82 16.24L0.82 24.39C0.83 24.65 1.03 24.85 1.29 24.85C1.35 24.85 1.4 24.84 1.45 24.82L8.44 22.12L16.4 24.97C16.5 25 16.6 25 16.7 24.97L23.84 22.74C24.04 22.68 24.17 22.49 24.16 22.28ZM16.77 0.92C19.07 0.92 20.94 2.79 20.94 5.09C20.94 6.9 18.22 11.9 16.77 14.35C15.32 11.88 12.6 6.88 12.6 5.09C12.6 2.79 14.47 0.92 16.77 0.92ZM23.25 21.96L17.02 23.91L17.02 20.37C17.02 20.12 16.81 19.91 16.56 19.91C16.3 19.91 16.09 20.12 16.09 20.37L16.09 23.87L8.9 21.3L8.9 18.33C8.9 18.08 8.69 17.87 8.43 17.87C8.18 17.87 7.97 18.08 7.97 18.33L7.97 21.3L1.75 23.72L1.75 16.56L4.04 15.63C4.28 15.56 4.42 15.3 4.35 15.06C4.27 14.81 4.01 14.67 3.77 14.75C3.74 14.76 3.72 14.77 3.7 14.78L1.75 15.56L1.75 9.11L7.97 6.71L7.97 8.09C7.97 8.35 8.18 8.56 8.43 8.56C8.69 8.56 8.9 8.35 8.9 8.09L8.9 6.69L12.45 7.96C13.59 10.56 14.9 13.09 16.37 15.52C16.5 15.74 16.79 15.81 17.01 15.67C17.07 15.64 17.12 15.58 17.16 15.52C18.63 13.1 19.93 10.59 21.07 8.01L23.24 7.33L23.25 14.92L20.9 15.49C20.65 15.52 20.47 15.75 20.5 16C20.53 16.26 20.76 16.44 21.02 16.41C21.05 16.42 21.09 16.42 21.13 16.41L23.25 15.89L23.25 21.96L23.25 21.96Z" fill="#2D383F" fill-opacity="1.000000" fill-rule="evenodd"/><path id="Vector" d="M16.75 2.4C15.27 2.4 14.06 3.6 14.06 5.09C14.06 6.58 15.27 7.78 16.75 7.78C18.24 7.78 19.44 6.57 19.44 5.09C19.44 3.6 18.24 2.4 16.75 2.4ZM16.75 6.85C15.79 6.84 15.01 6.06 15 5.09L14.99 5.09C14.99 4.11 15.78 3.32 16.75 3.32C17.73 3.32 18.52 4.11 18.52 5.09C18.52 6.06 17.73 6.85 16.75 6.85Z" fill="#2D383F" fill-opacity="1.000000" fill-rule="evenodd"/><path id="Vector" d="M10.69 13.96L10.69 13.98L8.45 13.01C8.34 12.96 8.21 12.96 8.09 13.01L6.2 13.77C5.96 13.87 5.85 14.14 5.94 14.38C6.04 14.62 6.31 14.73 6.55 14.63L8.26 13.94L10.32 14.81C10.38 14.84 10.44 14.85 10.51 14.85C10.76 14.85 10.97 14.65 10.97 14.39C10.98 14.21 10.87 14.04 10.69 13.96Z" fill="#2D383F" fill-opacity="1.000000" fill-rule="evenodd"/><path id="Vector" d="M18.26 16.61C18.2 16.39 17.97 16.25 17.74 16.29L17.75 16.25L16.6 16.53L14.65 15.69C14.42 15.59 14.14 15.7 14.04 15.93C13.94 16.17 14.05 16.44 14.28 16.54L16.37 17.47C16.42 17.49 16.49 17.51 16.55 17.51L16.66 17.51L17.96 17.19C18.2 17.11 18.34 16.86 18.26 16.61Z" fill="#2D383F" fill-opacity="1.000000" fill-rule="evenodd"/></g></svg>
