<svg width="21.000000" height="21.000000" viewBox="0 0 21 21" fill="none" xmlns="http://www.w3.org/2000/svg" xmlns:xlink="http://www.w3.org/1999/xlink"><defs/><path id="icon/phone" d="M15.73 19.86C11.82 19.24 8.2 17.39 5.39 14.58C2.59 11.76 0.75 8.13 0.12 4.19C0.08 3.89 0.04 3.59 0 3.29C-0.07 2.58 0.32 1.92 0.95 1.6L3.7 0.19C4.76 -0.35 6.05 0.28 6.42 1.42C6.65 2.11 6.92 2.79 7.23 3.46C7.38 3.79 7.55 4.12 7.72 4.44C8.13 5.2 7.85 6.18 7.07 6.54C5.93 7.06 5.66 8.56 6.54 9.45L10.5 13.42C11.38 14.31 12.88 14.04 13.4 12.89C13.77 12.06 14.8 11.76 15.61 12.18C15.8 12.28 16 12.37 16.2 12.47C16.96 12.82 17.74 13.13 18.54 13.37C19.69 13.73 20.35 15.04 19.8 16.12L18.32 19.04C18 19.67 17.34 20.06 16.64 19.99C16.34 19.95 16.04 19.91 15.73 19.86Z" stroke="#2D383F" stroke-opacity="1.000000" stroke-width="1.000000" stroke-linejoin="round"/></svg>
