<svg width="20.000000" height="20.000000" viewBox="0 0 20 20" fill="none" xmlns="http://www.w3.org/2000/svg" xmlns:xlink="http://www.w3.org/1999/xlink"><defs/><path id="icon/sun" d="M10 0C9.62 0 9.31 0.31 9.31 0.68L9.31 2.72C9.31 3.09 9.62 3.41 10 3.41C10.37 3.41 10.68 3.09 10.68 2.72L10.68 0.68C10.68 0.31 10.37 0 10 0ZM5.31 4.39L3.86 2.93C3.59 2.67 3.17 2.67 2.91 2.93C2.77 3.06 2.71 3.24 2.71 3.41C2.71 3.58 2.77 3.75 2.91 3.88L4.36 5.34C4.62 5.6 5.05 5.6 5.31 5.34C5.45 5.21 5.51 5.03 5.51 4.86C5.51 4.69 5.45 4.52 5.31 4.39ZM17.08 2.93C16.82 2.67 16.4 2.67 16.13 2.93L14.68 4.39C14.54 4.52 14.48 4.69 14.48 4.86C14.48 5.03 14.54 5.21 14.68 5.34C14.92 5.6 15.37 5.6 15.63 5.34L17.08 3.88C17.22 3.75 17.28 3.58 17.28 3.41C17.28 3.24 17.22 3.06 17.08 2.93ZM13.54 6.45C12.64 5.55 11.37 4.97 10 4.97C8.62 4.97 7.35 5.52 6.45 6.45C5.55 7.35 4.97 8.62 4.97 10C4.97 11.37 5.55 12.64 6.45 13.54C7.35 14.44 8.62 15.02 10 15.02C11.37 15.02 12.64 14.47 13.54 13.54C14.44 12.64 15.02 11.37 15.02 10C15.02 8.62 14.47 7.35 13.54 6.45ZM12.59 12.59C11.93 13.25 11 13.65 10 13.65C8.99 13.65 8.06 13.25 7.4 12.59C6.74 11.93 6.34 11 6.34 10C6.34 8.99 6.74 8.06 7.4 7.4C8.06 6.74 8.99 6.34 10 6.34C11 6.34 11.93 6.74 12.59 7.4C13.25 8.06 13.65 8.99 13.65 10C13.65 11 13.25 11.93 12.59 12.59ZM2.72 9.31L0.68 9.31C0.31 9.31 0 9.62 0 10C0 10.37 0.29 10.68 0.68 10.68L2.72 10.68C3.09 10.68 3.41 10.37 3.41 10C3.41 9.62 3.09 9.31 2.72 9.31ZM19.31 9.31L17.27 9.31C16.9 9.31 16.58 9.62 16.58 10C16.58 10.37 16.9 10.68 17.27 10.68L19.31 10.68C19.68 10.68 20 10.37 20 10C20 9.62 19.68 9.31 19.31 9.31ZM5.31 14.65C5.07 14.39 4.62 14.39 4.36 14.65L2.91 16.11C2.77 16.24 2.71 16.41 2.71 16.58C2.71 16.75 2.77 16.93 2.91 17.06C3.17 17.32 3.59 17.32 3.86 17.06L5.31 15.6C5.45 15.47 5.51 15.3 5.51 15.13C5.51 14.96 5.45 14.78 5.31 14.65ZM17.06 16.11L15.6 14.65C15.37 14.39 14.92 14.39 14.65 14.65C14.52 14.78 14.45 14.96 14.45 15.13C14.45 15.3 14.52 15.47 14.65 15.6L16.11 17.06C16.37 17.32 16.79 17.32 17.06 17.06C17.19 16.93 17.26 16.75 17.26 16.58C17.26 16.41 17.19 16.24 17.06 16.11ZM10 16.58C9.62 16.58 9.31 16.9 9.31 17.27L9.31 19.31C9.31 19.68 9.62 20 10 20C10.37 20 10.68 19.68 10.68 19.31L10.68 17.27C10.68 16.9 10.37 16.58 10 16.58Z" fill="#FFFFFF" fill-opacity="1.000000" fill-rule="evenodd"/></svg>
