<svg width="9.000000" height="12.000000" viewBox="0 0 9 12" fill="none" xmlns="http://www.w3.org/2000/svg" xmlns:xlink="http://www.w3.org/1999/xlink"><defs/><path id="icon/pin" d="M4.5 0C2.01 0 0 1.98 0 4.41C0 5.05 0.13 5.66 0.39 6.22C1.51 8.63 3.67 11.19 4.31 11.91C4.35 11.96 4.42 12 4.5 12C4.57 12 4.64 11.96 4.68 11.91C5.32 11.19 7.48 8.63 8.6 6.22C8.86 5.66 9 5.05 9 4.41C9 1.98 6.98 0 4.5 0ZM4.5 6.71C3.21 6.71 2.16 5.68 2.16 4.41C2.16 3.15 3.21 2.12 4.5 2.12C5.78 2.12 6.83 3.15 6.83 4.41C6.83 5.68 5.78 6.71 4.5 6.71Z" fill="#FFFFFF" fill-opacity="1.000000" fill-rule="evenodd"/></svg>
