<svg width="16.000000" height="16.000000" viewBox="0 0 16 16" fill="none" xmlns="http://www.w3.org/2000/svg" xmlns:xlink="http://www.w3.org/1999/xlink">
	<desc>
			Created with Pixso.
	</desc>
	<defs/>
	<path id="icon/moon" d="M15.62 9.1C15.45 9.06 15.29 9.1 15.15 9.2C14.62 9.65 14 10.02 13.33 10.27C12.69 10.52 12 10.64 11.26 10.64C9.61 10.64 8.09 9.96 7.01 8.87C5.92 7.79 5.25 6.27 5.25 4.61C5.25 3.91 5.37 3.23 5.58 2.62C5.8 1.96 6.13 1.37 6.56 0.85C6.74 0.63 6.7 0.3 6.48 0.11C6.33 0.01 6.17 -0.03 6.01 0.01C4.27 0.48 2.76 1.53 1.67 2.92C0.63 4.3 0 6 0 7.87C0 10.11 0.89 12.14 2.37 13.61C3.84 15.09 5.86 16 8.09 16C9.97 16 11.71 15.34 13.1 14.25C14.51 13.14 15.54 11.56 15.96 9.76C16.07 9.45 15.9 9.16 15.62 9.1ZM12.49 13.39C11.3 14.33 9.79 14.91 8.13 14.91C6.19 14.91 4.43 14.11 3.16 12.83C1.9 11.56 1.1 9.8 1.1 7.85C1.1 6.23 1.63 4.75 2.55 3.56C3.18 2.74 3.98 2.06 4.9 1.59C4.8 1.82 4.7 2.04 4.62 2.29C4.35 3.03 4.23 3.81 4.23 4.63C4.23 6.58 5.03 8.36 6.29 9.63C7.56 10.91 9.34 11.71 11.28 11.71C12.14 11.71 12.96 11.56 13.71 11.28C13.98 11.17 14.25 11.07 14.49 10.95C14 11.89 13.33 12.73 12.49 13.39Z" fill="#FFFFFF" fill-opacity="1.000000" fill-rule="evenodd"/>
</svg>
