<svg width="16.000000" height="9.000000" viewBox="0 0 16 9" xmlns="http://www.w3.org/2000/svg" xmlns:xlink="http://www.w3.org/1999/xlink"><defs/><path id="icon/vk" d="M15.85 8.02C15.81 7.95 15.54 7.38 14.26 6.21C12.92 4.98 13.1 5.18 14.72 3.06C15.7 1.77 16.09 0.98 15.97 0.64C15.85 0.32 15.13 0.41 15.13 0.41L12.73 0.42C12.73 0.42 12.55 0.4 12.41 0.48C12.29 0.55 12.2 0.73 12.2 0.73C12.2 0.73 11.82 1.73 11.31 2.58C10.24 4.37 9.81 4.47 9.64 4.36C9.23 4.1 9.33 3.31 9.33 2.76C9.33 1.02 9.6 0.29 8.81 0.11C8.55 0.05 8.36 0 7.69 0C6.83 -0.01 6.1 0 5.69 0.2C5.42 0.33 5.21 0.63 5.34 0.64C5.5 0.66 5.86 0.74 6.05 0.99C6.29 1.32 6.29 2.07 6.29 2.07C6.29 2.07 6.43 4.11 5.95 4.37C5.63 4.54 5.18 4.19 4.23 2.56C3.74 1.73 3.37 0.8 3.37 0.8C3.37 0.8 3.3 0.63 3.17 0.54C3.02 0.43 2.8 0.39 2.8 0.39L0.52 0.41C0.52 0.41 0.17 0.42 0.05 0.56C-0.06 0.7 0.04 0.97 0.04 0.97C0.04 0.97 1.83 5.09 3.85 7.17C5.71 9.08 7.82 8.96 7.82 8.96L8.78 8.96C8.78 8.96 9.07 8.93 9.22 8.77C9.35 8.62 9.35 8.35 9.35 8.35C9.35 8.35 9.33 7.09 9.92 6.9C10.51 6.72 11.27 8.13 12.06 8.67C12.67 9.08 13.13 8.99 13.13 8.99L15.26 8.96C15.26 8.96 16.38 8.89 15.85 8.02Z" fill-opacity="1.000000" fill-rule="evenodd"/></svg>
